<?xml version="1.0" standalone="no"?>
        <!DOCTYPE svg PUBLIC "-//W3C//DTD SVG 1.1//EN" 
        "http://www.w3.org/Graphics/SVG/1.1/DTD/svg11.dtd"> <svg style="color: white" xmlns="http://www.w3.org/2000/svg" width="16" height="16" fill="currentColor" class="bi bi-border-width" viewBox="0 0 16 16"> <path d="M0 3.5A.5.5 0 0 1 .5 3h15a.5.5 0 0 1 .5.5v2a.5.5 0 0 1-.5.5H.5a.5.5 0 0 1-.5-.5v-2zm0 5A.5.5 0 0 1 .5 8h15a.5.5 0 0 1 .5.5v1a.5.5 0 0 1-.5.5H.5a.5.5 0 0 1-.5-.5v-1zm0 4a.5.5 0 0 1 .5-.5h15a.5.5 0 0 1 0 1H.5a.5.5 0 0 1-.5-.5z" fill="white"></path> </svg> 